<svg 
          width="125.35652923583984" 
          height="23.480113983154297" fill="none" 
          xmlns="http://www.w3.org/2000/svg">
          <path d="M 15.383522987365723 6.732954978942871 C 14.846590518951416 2.8551137447357178 11.863637208938599 0.6051135063171387 7.994318962097168 0.6051135063171387 C 3.434659481048584 0.6051135063171387 0 3.9289770126342773 0 9.571022987365723 C 0 15.204545974731445 3.3920459747314453 18.53693199157715 7.994318962097168 18.53693199157715 C 12.14488697052002 18.53693199157715 14.897727012634277 15.852272272109985 15.383522987365723 12.519886016845703 L 12.196022987365723 12.50284194946289 C 11.795454025268555 14.548296689987183 10.125000238418579 15.698863983154297 8.036931991577148 15.698863983154297 C 5.20738673210144 15.698863983154297 3.1789774894714355 13.576704978942871 3.1789774894714355 9.571022987365723 C 3.1789774894714355 5.633522987365723 5.190340757369995 3.4431819915771484 8.045454978942871 3.4431819915771484 C 10.167613744735718 3.4431819915771484 11.829545974731445 4.64488673210144 12.196022987365723 6.732954978942871 L 15.383522987365723 6.732954978942871 ZM 21.909799575805664 18.5625 C 23.96377658843994 18.5625 25.191049575805664 17.59943175315857 25.753549575805664 16.5 L 25.855823516845703 16.5 L 25.855823516845703 18.298295974731445 L 28.821733474731445 18.298295974731445 L 28.821733474731445 9.536931991577148 C 28.821733474731445 6.076704263687134 26.00070834159851 5.036931991577148 23.503549575805664 5.036931991577148 C 20.75070858001709 5.036931991577148 18.637073636054993 6.264203786849976 17.95525550842285 8.650568008422852 L 20.8359375 9.059659957885742 C 21.14275574684143 8.16477346420288 22.012072920799255 7.397727966308594 23.52059555053711 7.397727966308594 C 24.95241379737854 7.397727966308594 25.73650550842285 8.13068151473999 25.73650550842285 9.417613983154297 L 25.73650550842285 9.46875 C 25.73650550842285 10.355114221572876 24.807528257369995 10.397727251052856 22.49786949157715 10.644886016845703 C 19.958096504211426 10.917613744735718 17.529117584228516 11.676136016845703 17.529117584228516 14.625 C 17.529117584228516 17.198863744735718 19.41264033317566 18.5625 21.909799575805664 18.5625 Z M 22.7109375 16.295454025268555 C 21.424005389213562 16.295454025268555 20.503549575805664 15.70738661289215 20.503549575805664 14.573863983154297 C 20.503549575805664 13.389204502105713 21.534799814224243 12.89488697052002 22.915481567382812 12.698863983154297 C 23.72514033317566 12.588068723678589 25.344459295272827 12.38352346420288 25.745027542114258 12.059659957885742 L 25.745027542114258 13.602273941040039 C 25.745027542114258 15.0596604347229 24.568892240524292 16.295454025268555 22.7109375 16.295454025268555 ZM 38.4609375 5.207386016845703 L 35.8785514831543 5.207386016845703 L 35.8785514831543 2.0710229873657227 L 32.7933235168457 2.0710229873657227 L 32.7933235168457 5.207386016845703 L 30.93536949157715 5.207386016845703 L 30.93536949157715 7.59375 L 32.7933235168457 7.59375 L 32.7933235168457 14.872159957885742 C 32.77627789974213 17.335228204727173 34.56605362892151 18.545455761253834 36.88423538208008 18.47727394104004 C 37.76207661628723 18.451705761253834 38.36718702316284 18.28125138580799 38.6995735168457 18.170455932617188 L 38.1796875 15.758523941040039 C 38.00923275947571 15.801137626171112 37.65980243682861 15.87784194946289 37.27627944946289 15.87784194946289 C 36.50071120262146 15.87784194946289 35.8785514831543 15.605113983154297 35.8785514831543 14.360795974731445 L 35.8785514831543 7.59375 L 38.4609375 7.59375 L 38.4609375 5.207386016845703 ZM 46.696022033691406 18.553977966308594 C 49.74715852737427 18.553977966308594 51.84375190734863 17.06250023841858 52.38920593261719 14.786931991577148 L 49.50852584838867 14.463068008422852 C 49.090911626815796 15.571022510528564 48.06818127632141 16.15056800842285 46.7386360168457 16.15056800842285 C 44.744317412376404 16.15056800842285 43.423296213150024 14.838069438934326 43.397727966308594 12.59659194946289 L 52.51704788208008 12.59659194946289 L 52.51704788208008 11.650568008422852 C 52.51704788208008 7.056818008422852 49.755683183670044 5.036931991577148 46.53409194946289 5.036931991577148 C 42.78409194946289 5.036931991577148 40.338069915771484 7.789772987365723 40.338069915771484 11.829545974731445 C 40.338069915771484 15.937500476837158 42.74999952316284 18.553977966308594 46.696022033691406 18.553977966308594 Z M 43.40625 10.517045974731445 C 43.5 8.846591234207153 44.73579716682434 7.440340995788574 46.57670593261719 7.440340995788574 C 48.3494336605072 7.440340995788574 49.54261660575867 8.735795974731445 49.559661865234375 10.517045974731445 L 43.40625 10.517045974731445 ZM 60.8203125 23.480113983154297 C 64.35724425315857 23.480113983154297 66.96519470214844 21.860795736312866 66.96519470214844 18.511363983154297 L 66.96519470214844 5.207386016845703 L 63.92258834838867 5.207386016845703 L 63.92258834838867 7.372159957885742 L 63.752132415771484 7.372159957885742 C 63.283382415771484 6.4261369705200195 62.30326986312866 5.036931991577148 59.99361038208008 5.036931991577148 C 56.96804213523865 5.036931991577148 54.5901985168457 7.40625 54.5901985168457 11.710227966308594 C 54.5901985168457 15.980114459991455 56.9680392742157 18.110795974731445 59.985084533691406 18.110795974731445 C 62.22656226158142 18.110795974731445 63.27485942840576 16.90909218788147 63.752132415771484 15.946023941040039 L 63.90554428100586 15.946023941040039 L 63.90554428100586 18.426136016845703 C 63.90554428100586 20.352272510528564 62.62713027000427 21.144887924194336 60.8714485168457 21.144887924194336 C 59.01349377632141 21.144887924194336 58.1953125 20.267045438289642 57.8203125 19.5 L 55.04190444946289 20.173295974731445 C 55.60440444946289 22.005682468414307 57.48792600631714 23.480113983154297 60.8203125 23.480113983154297 Z M 60.845882415771484 15.69034194946289 C 58.808950424194336 15.69034194946289 57.73508834838867 14.105113506317139 57.73508834838867 11.693181991577148 C 57.73508834838867 9.315340757369995 58.79190468788147 7.568181991577148 60.845882415771484 7.568181991577148 C 62.83167767524719 7.568181991577148 63.92258834838867 9.213067770004272 63.92258834838867 11.693181991577148 C 63.92258834838867 14.190340757369995 62.814632415771484 15.69034194946289 60.845882415771484 15.69034194946289 ZM 75.83735656738281 18.553977966308594 C 79.67258429527283 18.553977966308594 82.1100845336914 15.85227346420288 82.1100845336914 11.803977966308594 C 82.1100845336914 7.747159957885742 79.67258429527283 5.036931991577148 75.83735656738281 5.036931991577148 C 72.00212907791138 5.036931991577148 69.56462860107422 7.747159957885742 69.56462860107422 11.803977966308594 C 69.56462860107422 15.85227346420288 72.00212907791138 18.553977966308594 75.83735656738281 18.553977966308594 Z M 75.85440063476562 16.082386016845703 C 73.73224186897278 16.082386016845703 72.69246673583984 14.190340518951416 72.69246673583984 11.795454025268555 C 72.69246673583984 9.400567531585693 73.73224186897278 7.482954978942871 75.85440063476562 7.482954978942871 C 77.94246888160706 7.482954978942871 78.98223876953125 9.400567531585693 78.98223876953125 11.795454025268555 C 78.98223876953125 14.190340518951416 77.94246888160706 16.082386016845703 75.85440063476562 16.082386016845703 ZM 84.72869110107422 18.298295974731445 L 87.81391906738281 18.298295974731445 L 87.81391906738281 10.602272987365723 C 87.81391906738281 8.940341234207153 89.06675660610199 7.764204978942871 90.76277923583984 7.764204978942871 C 91.2826657295227 7.764204978942871 91.9303982257843 7.857954978942871 92.1946029663086 7.943181991577148 L 92.1946029663086 5.105113983154297 C 91.9133529663086 5.0539774894714355 91.42755651473999 5.019886016845703 91.0866470336914 5.019886016845703 C 89.5866470336914 5.019886016845703 88.33380222320557 5.872159719467163 87.85652923583984 7.389204978942871 L 87.72016906738281 7.389204978942871 L 87.72016906738281 5.207386016845703 L 84.72869110107422 5.207386016845703 L 84.72869110107422 18.298295974731445 ZM 94.24431610107422 18.298295974731445 L 97.32954406738281 18.298295974731445 L 97.32954406738281 5.207386016845703 L 94.24431610107422 5.207386016845703 L 94.24431610107422 18.298295974731445 Z M 95.79544830322266 3.3494319915771484 C 96.7755618095398 3.3494319915771484 97.57669830322266 2.5994324684143066 97.57669830322266 1.6789770126342773 C 97.57669830322266 0.75 96.7755618095398 0 95.79544830322266 0 C 94.8068118095398 0 94.00567626953125 0.75 94.00567626953125 1.6789770126342773 C 94.00567626953125 2.5994324684143066 94.8068118095398 3.3494319915771484 95.79544830322266 3.3494319915771484 ZM 106.2975845336914 18.553977966308594 C 109.34872102737427 18.553977966308594 111.4453067779541 17.06250023841858 111.99076080322266 14.786931991577148 L 109.1100845336914 14.463068008422852 C 108.69247031211853 15.571022510528564 107.66973996162415 16.15056800842285 106.34019470214844 16.15056800842285 C 104.34587609767914 16.15056800842285 103.02485871315002 14.838069438934326 102.9992904663086 12.59659194946289 L 112.11860656738281 12.59659194946289 L 112.11860656738281 11.650568008422852 C 112.11860656738281 7.056818008422852 109.35724186897278 5.036931991577148 106.13565063476562 5.036931991577148 C 102.38565063476562 5.036931991577148 99.93962860107422 7.789772987365723 99.93962860107422 11.829545974731445 C 99.93962860107422 15.937500476837158 102.35156202316284 18.553977966308594 106.2975845336914 18.553977966308594 Z M 103.0078125 10.517045974731445 C 103.1015625 8.846591234207153 104.33735203742981 7.440340995788574 106.17826080322266 7.440340995788574 C 107.95098853111267 7.440340995788574 109.14417147636414 8.735795974731445 109.16121673583984 10.517045974731445 L 103.0078125 10.517045974731445 ZM 125.07527923583984 8.667613983154297 C 124.64914345741272 6.451704502105713 122.8764169216156 5.036931991577148 119.80823516845703 5.036931991577148 C 116.6548261642456 5.036931991577148 114.50710228085518 6.588068246841431 114.515625 9.008522987365723 C 114.50710228085518 10.917614221572876 115.6832365989685 12.178977847099304 118.19744110107422 12.698863983154297 L 120.4303970336914 13.167613983154297 C 121.6321017742157 13.431818723678589 122.1946029663086 13.917614579200745 122.1946029663086 14.65909194946289 C 122.1946029663086 15.553978443145752 121.22301244735718 16.22727394104004 119.7571029663086 16.22727394104004 C 118.34233033657074 16.22727394104004 117.42187345027924 15.613636493682861 117.15766906738281 14.4375 L 114.1491470336914 14.727273941040039 C 114.53266975283623 17.130683183670044 116.55255651473999 18.553977966308594 119.765625 18.553977966308594 C 123.03835201263428 18.553977966308594 125.34800624847412 16.85795569419861 125.35652923583984 14.37784194946289 C 125.34800624847412 12.511364579200745 124.14630436897278 11.369317770004272 121.67471313476562 10.832386016845703 L 119.44175720214844 10.355113983154297 C 118.11221122741699 10.056818008422852 117.58380031585693 9.596590995788574 117.59232330322266 8.838068008422852 C 117.58380031585693 7.951704502105713 118.56392121315002 7.338068008422852 119.8508529663086 7.338068008422852 C 121.2741482257843 7.338068008422852 122.02414274215698 8.11363673210144 122.26277923583984 8.974431991577148 L 125.07527923583984 8.667613983154297 Z" fill="rgb(21.44921824336052,37.240627482533455,54.18750151991844)"/>
        </svg>