<svg 
          width="67.26349639892578" 
          height="13.474432945251465" fill="none" 
          xmlns="http://www.w3.org/2000/svg">
          <path d="M 10.840909004211426 4.2698869705200195 C 10.412641763687134 1.8600852489471436 8.443892002105713 0 5.656960487365723 0 C 2.3522729873657227 0 0 2.6271305084228516 0 6.724431991577148 C 0 10.821732997894287 2.3522729873657227 13.448864936828613 5.656960487365723 13.448864936828613 C 8.443892002105713 13.448864936828613 10.412641763687134 11.582387208938599 10.840909004211426 9.178977966308594 L 9.639204978942871 9.178977966308594 C 9.274859070777893 10.97514283657074 7.708806991577148 12.323864936828613 5.656960487365723 12.323864936828613 C 3.176846742630005 12.323864936828613 1.156960368156433 10.36150598526001 1.156960368156433 6.724431991577148 C 1.156960368156433 3.100142002105713 3.176846742630005 1.125 5.656960487365723 1.125 C 7.708806991577148 1.125 9.274859070777893 2.4801143407821655 9.639204978942871 4.2698869705200195 L 10.840909004211426 4.2698869705200195 ZM 14.549893379211426 7.133522987365723 C 14.549893379211426 5.420454502105713 15.700462222099304 4.365767478942871 17.272905349731445 4.365767478942871 C 18.794212460517883 4.365767478942871 19.76580238342285 5.362926483154297 19.76580238342285 6.980113983154297 L 19.76580238342285 13.26988697052002 L 20.90997886657715 13.26988697052002 L 20.90997886657715 6.909801483154297 C 20.90997886657715 4.570312738418579 19.55486536026001 3.323863983154297 17.560546875 3.323863983154297 C 16.077592134475708 3.323863983154297 15.112393736839294 3.975852370262146 14.652166366577148 4.9921875 L 14.549893379211426 4.9921875 L 14.549893379211426 0.17897748947143555 L 13.412109375 0.17897748947143555 L 13.412109375 13.26988697052002 L 14.549893379211426 13.26988697052002 L 14.549893379211426 7.133522987365723 ZM 23.919034957885742 13.26988697052002 L 25.06321144104004 13.26988697052002 L 25.06321144104004 3.451704978942871 L 23.919034957885742 3.451704978942871 L 23.919034957885742 13.26988697052002 Z M 24.500709533691406 1.764204978942871 C 24.967329025268555 1.764204978942871 25.35724449157715 1.3934658765792847 25.35724449157715 0.9460229873657227 C 25.35724449157715 0.49858009815216064 24.967329025268555 0.12784051895141602 24.500709533691406 0.12784051895141602 C 24.03409019112587 0.12784051895141602 23.65056800842285 0.49858009815216064 23.65056800842285 0.9460229873657227 C 23.65056800842285 1.3934658765792847 24.03409019112587 1.764204978942871 24.500709533691406 1.764204978942871 ZM 29.210050582885742 0.17897748947143555 L 28.072265625 0.17897748947143555 L 28.072265625 13.26988697052002 L 29.210050582885742 13.26988697052002 L 29.210050582885742 0.17897748947143555 ZM 35.7555046081543 13.474432945251465 C 37.53888499736786 13.474432945251465 38.36984986066818 12.343039870262146 38.77254867553711 11.448153495788574 L 38.90678024291992 11.448153495788574 L 38.90678024291992 13.26988697052002 L 40.01899719238281 13.26988697052002 L 40.01899719238281 0.17897748947143555 L 38.874820709228516 0.17897748947143555 L 38.874820709228516 5.3245744705200195 L 38.77254867553711 5.3245744705200195 C 38.38263380527496 4.4424721002578735 37.570842146873474 3.317472457885742 35.77467727661133 3.317472457885742 C 33.352091789245605 3.317472457885742 31.715730667114258 5.362926006317139 31.715730667114258 8.386363983154297 C 31.715730667114258 11.435369491577148 33.345703125 13.474432945251465 35.7555046081543 13.474432945251465 Z M 35.88973617553711 12.432528495788574 C 33.933770418167114 12.432528495788574 32.85990524291992 10.655540466308594 32.85990524291992 8.367188453674316 C 32.85990524291992 6.104403972625732 33.92098617553711 4.352983474731445 35.88973617553711 4.352983474731445 C 37.80734992027283 4.352983474731445 38.89399719238281 6.014915227890015 38.89399719238281 8.367188453674316 C 38.89399719238281 10.738637208938599 37.7945659160614 12.432528495788574 35.88973617553711 12.432528495788574 ZM 43.259765625 13.26988697052002 L 44.39754867553711 13.26988697052002 L 44.39754867553711 6.928977012634277 C 44.39754867553711 5.471590757369995 45.51615643501282 4.416903495788574 47.05024719238281 4.416903495788574 C 47.350673377513885 4.416903495788574 47.63192307949066 4.4680399894714355 47.734195709228516 4.4808244705200195 L 47.734195709228516 3.323863983154297 C 47.580786764621735 3.317471742630005 47.31871235370636 3.3046875 47.13334274291992 3.3046875 C 45.899678111076355 3.3046875 44.84499153494835 3.9694597721099854 44.44868469238281 4.960227012634277 L 44.3655891418457 4.960227012634277 L 44.3655891418457 3.451704978942871 L 43.259765625 3.451704978942871 L 43.259765625 13.26988697052002 ZM 53.346412658691406 13.474432945251465 C 55.315162658691406 13.474432945251465 56.638315320014954 12.406960725784302 57.085758209228516 11.173295974731445 L 56.0055046081543 10.821733474731445 C 55.62837368249893 11.703835844993591 54.73987865447998 12.432528495788574 53.346412658691406 12.432528495788574 C 51.33931016921997 12.432528495788574 50.0672916918993 10.968750715255737 50.01615524291992 8.69957447052002 L 57.32865524291992 8.69957447052002 L 57.32865524291992 8.13707447052002 C 57.32865524291992 4.857954978942871 55.30237936973572 3.317472457885742 53.173828125 3.317472457885742 C 50.629793882369995 3.317472457885742 48.871978759765625 5.446023225784302 48.871978759765625 8.41832447052002 C 48.871978759765625 11.39701771736145 50.597832918167114 13.474432945251465 53.346412658691406 13.474432945251465 Z M 50.02254867553711 7.696022987365723 C 50.143997490406036 5.867897987365723 51.377663254737854 4.352983474731445 53.173828125 4.352983474731445 C 54.931640625 4.352983474731445 56.16530227661133 5.8039772510528564 56.16530227661133 7.696022987365723 L 50.02254867553711 7.696022987365723 ZM 60.97372055053711 7.133522987365723 C 60.97372055053711 5.420454502105713 62.09872055053711 4.365767478942871 63.64559555053711 4.365767478942871 C 65.15411818027496 4.365767478942871 66.1257095336914 5.375710964202881 66.1257095336914 6.980113983154297 L 66.1257095336914 13.26988697052002 L 67.26349639892578 13.26988697052002 L 67.26349639892578 6.909801483154297 C 67.26349639892578 4.583097219467163 65.91477298736572 3.323863983154297 63.9332389831543 3.323863983154297 C 62.495028614997864 3.323863983154297 61.504260420799255 3.98863685131073 61.04403305053711 4.9921875 L 60.9417610168457 4.9921875 L 60.9417610168457 3.451704978942871 L 59.8359375 3.451704978942871 L 59.8359375 13.26988697052002 L 60.97372055053711 13.26988697052002 L 60.97372055053711 7.133522987365723 Z" fill="rgb(0.31875064596533775,4.265000866726041,8.500000443309546)"/>
        </svg>