<svg 
          width="123.23224639892578" 
          height="17.71875" fill="none" 
          xmlns="http://www.w3.org/2000/svg">
          <path d="M 5.9147725105285645 17.454545974731445 C 11.232954978942871 17.454545974731445 14.386364936828613 14.164772987365723 14.386364936828613 8.710227966308594 C 14.386364936828613 3.2727270126342773 11.232954978942871 0 6.034090995788574 0 L 0 0 L 0 17.454545974731445 L 5.9147725105285645 17.454545974731445 Z M 3.1619319915771484 14.71875 L 3.1619319915771484 2.7357959747314453 L 5.855113983154297 2.7357959747314453 C 9.400568723678589 2.7357959747314453 11.250000953674316 4.713069200515747 11.250000953674316 8.710227966308594 C 11.250000953674316 12.724432468414307 9.400568723678589 14.71875 5.761363983154297 14.71875 L 3.1619319915771484 14.71875 ZM 21.02130699157715 17.71875 C 23.075284004211426 17.71875 24.30255699157715 16.75568175315857 24.86505699157715 15.65625 L 24.967330932617188 15.65625 L 24.967330932617188 17.454545974731445 L 27.93324089050293 17.454545974731445 L 27.93324089050293 8.693181991577148 C 27.93324089050293 5.232954263687134 25.112215757369995 4.193181991577148 22.61505699157715 4.193181991577148 C 19.862215995788574 4.193181991577148 17.748581051826477 5.420453786849976 17.066762924194336 7.806818008422852 L 19.947444915771484 8.215909957885742 C 20.254263162612915 7.321023464202881 21.12358033657074 6.553977966308594 22.632102966308594 6.553977966308594 C 24.063921213150024 6.553977966308594 24.848012924194336 7.28693151473999 24.848012924194336 8.573863983154297 L 24.848012924194336 8.625 C 24.848012924194336 9.511364221572876 23.91903567314148 9.553977251052856 21.609376907348633 9.801136016845703 C 19.06960391998291 10.073863744735718 16.640625 10.832386016845703 16.640625 13.78125 C 16.640625 16.355113744735718 18.524147748947144 17.71875 21.02130699157715 17.71875 Z M 21.822444915771484 15.451704025268555 C 20.535512804985046 15.451704025268555 19.61505699157715 14.86363661289215 19.61505699157715 13.730113983154297 C 19.61505699157715 12.545454502105713 20.646307229995728 12.05113697052002 22.026988983154297 11.855113983154297 C 22.836647748947144 11.744318723678589 24.45596671104431 11.53977346420288 24.856534957885742 11.215909957885742 L 24.856534957885742 12.758523941040039 C 24.856534957885742 14.2159104347229 23.680399656295776 15.451704025268555 21.822444915771484 15.451704025268555 ZM 41.382102966308594 7.823863983154297 C 40.95596718788147 5.607954502105713 39.183236837387085 4.193181991577148 36.115055084228516 4.193181991577148 C 32.96164608001709 4.193181991577148 30.81392028927803 5.744318246841431 30.82244300842285 8.164772987365723 C 30.81392028927803 10.073864221572876 31.99005651473999 11.335227847099304 34.5042610168457 11.855113983154297 L 36.737213134765625 12.323863983154297 C 37.93891787528992 12.588068723678589 38.50141906738281 13.073864579200745 38.50141906738281 13.81534194946289 C 38.50141906738281 14.710228443145752 37.5298285484314 15.383523941040039 36.06391906738281 15.383523941040039 C 34.64914643764496 15.383523941040039 33.72869336605072 14.769886493682861 33.4644889831543 13.59375 L 30.455965042114258 13.883523941040039 C 30.83948776125908 16.286933183670044 32.85937261581421 17.710227966308594 36.07244110107422 17.710227966308594 C 39.345168113708496 17.710227966308594 41.65482997894287 16.01420569419861 41.663352966308594 13.53409194946289 C 41.65482997894287 11.667614579200745 40.45312428474426 10.525567770004272 37.98153305053711 9.988636016845703 L 35.74857711791992 9.511363983154297 C 34.41903114318848 9.213068008422852 33.890624046325684 8.752840995788574 33.899147033691406 7.994318008422852 C 33.890624046325684 7.107954502105713 34.87073731422424 6.494318008422852 36.15766906738281 6.494318008422852 C 37.58096432685852 6.494318008422852 38.33096647262573 7.26988673210144 38.569602966308594 8.130681991577148 L 41.382102966308594 7.823863983154297 ZM 47.2926139831543 9.784090995788574 C 47.2926139831543 7.892045736312866 48.46874928474426 6.801136016845703 50.12215805053711 6.801136016845703 C 51.74147629737854 6.801136016845703 52.696022033691406 7.832386255264282 52.696022033691406 9.596590995788574 L 52.696022033691406 17.454545974731445 L 55.78125 17.454545974731445 L 55.78125 9.119318008422852 C 55.78125 5.957386255264282 53.991477966308594 4.193181991577148 51.272727966308594 4.193181991577148 C 49.261364459991455 4.193181991577148 47.98295545578003 5.10511326789856 47.37784194946289 6.588068008422852 L 47.224430084228516 6.588068008422852 L 47.224430084228516 0 L 44.2073860168457 0 L 44.2073860168457 17.454545974731445 L 47.2926139831543 17.454545974731445 L 47.2926139831543 9.784090995788574 ZM 59.0625 17.454545974731445 L 62.09659194946289 17.454545974731445 L 62.09659194946289 15.392045974731445 L 62.27556610107422 15.392045974731445 C 62.761361718177795 16.346591413021088 63.77557373046875 17.684659957885742 66.02557373046875 17.684659957885742 C 69.11080074310303 17.684659957885742 71.42045593261719 15.238636493682861 71.42045593261719 10.926136016845703 C 71.42045593261719 6.562499523162842 69.04261994361877 4.193181991577148 66.01705169677734 4.193181991577148 C 63.7073929309845 4.193181991577148 62.74431610107422 5.5823869705200195 62.27556610107422 6.528409957885742 L 62.147727966308594 6.528409957885742 L 62.147727966308594 0 L 59.0625 0 L 59.0625 17.454545974731445 Z M 62.08806610107422 10.90909194946289 C 62.08806610107422 8.369318962097168 63.17898368835449 6.724431991577148 65.16477966308594 6.724431991577148 C 67.21875667572021 6.724431991577148 68.27557373046875 8.47159194946289 68.27557373046875 10.90909194946289 C 68.27557373046875 13.363637447357178 67.2017114162445 15.153409957885742 65.16477966308594 15.153409957885742 C 63.19602930545807 15.153409957885742 62.08806610107422 13.448864459991455 62.08806610107422 10.90909194946289 ZM 79.75355529785156 17.710227966308594 C 83.58878302574158 17.710227966308594 86.02628326416016 15.00852346420288 86.02628326416016 10.960227966308594 C 86.02628326416016 6.903409957885742 83.58878302574158 4.193181991577148 79.75355529785156 4.193181991577148 C 75.91832780838013 4.193181991577148 73.48082733154297 6.903409957885742 73.48082733154297 10.960227966308594 C 73.48082733154297 15.00852346420288 75.91832780838013 17.710227966308594 79.75355529785156 17.710227966308594 Z M 79.77059936523438 15.238636016845703 C 77.64844059944153 15.238636016845703 76.6086654663086 13.346590518951416 76.6086654663086 10.951704025268555 C 76.6086654663086 8.556817531585693 77.64844059944153 6.639204978942871 79.77059936523438 6.639204978942871 C 81.8586676120758 6.639204978942871 82.8984375 8.556817531585693 82.8984375 10.951704025268555 C 82.8984375 13.346590518951416 81.8586676120758 15.238636016845703 79.77059936523438 15.238636016845703 ZM 92.41193389892578 17.71875 C 94.46591091156006 17.71875 95.69318389892578 16.75568175315857 96.25568389892578 15.65625 L 96.35795593261719 15.65625 L 96.35795593261719 17.454545974731445 L 99.32386779785156 17.454545974731445 L 99.32386779785156 8.693181991577148 C 99.32386779785156 5.232954263687134 96.50284266471863 4.193181991577148 94.00568389892578 4.193181991577148 C 91.2528429031372 4.193181991577148 89.13920795917511 5.420453786849976 88.45738983154297 7.806818008422852 L 91.33807373046875 8.215909957885742 C 91.64489197731018 7.321023464202881 92.51420533657074 6.553977966308594 94.0227279663086 6.553977966308594 C 95.45454621315002 6.553977966308594 96.23863983154297 7.28693151473999 96.23863983154297 8.573863983154297 L 96.23863983154297 8.625 C 96.23863983154297 9.511364221572876 95.30965876579285 9.553977251052856 93 9.801136016845703 C 90.46022701263428 10.073863744735718 88.03125 10.832386016845703 88.03125 13.78125 C 88.03125 16.355113744735718 89.91477465629578 17.71875 92.41193389892578 17.71875 Z M 93.21307373046875 15.451704025268555 C 91.92614161968231 15.451704025268555 91.00568389892578 14.86363661289215 91.00568389892578 13.730113983154297 C 91.00568389892578 12.545454502105713 92.036936044693 12.05113697052002 93.41761779785156 11.855113983154297 C 94.22727656364441 11.744318723678589 95.84659361839294 11.53977346420288 96.24716186523438 11.215909957885742 L 96.24716186523438 12.758523941040039 C 96.24716186523438 14.2159104347229 95.07102847099304 15.451704025268555 93.21307373046875 15.451704025268555 ZM 102.42613983154297 17.454545974731445 L 105.51136779785156 17.454545974731445 L 105.51136779785156 9.758522987365723 C 105.51136779785156 8.096591234207153 106.76420533657074 6.920454978942871 108.4602279663086 6.920454978942871 C 108.98011445999146 6.920454978942871 109.62784695625305 7.014204978942871 109.89205169677734 7.099431991577148 L 109.89205169677734 4.261363983154297 C 109.61080169677734 4.2102274894714355 109.12500524520874 4.176136016845703 108.78409576416016 4.176136016845703 C 107.28409576416016 4.176136016845703 106.03125095367432 5.028409719467163 105.5539779663086 6.545454978942871 L 105.41761779785156 6.545454978942871 L 105.41761779785156 4.363636016845703 L 102.42613983154297 4.363636016845703 L 102.42613983154297 17.454545974731445 ZM 116.26065826416016 17.684659957885742 C 118.51065826416016 17.684659957885742 119.52486228942871 16.346591413021088 120.01065826416016 15.392045974731445 L 120.19815826416016 15.392045974731445 L 120.19815826416016 17.454545974731445 L 123.23224639892578 17.454545974731445 L 123.23224639892578 0 L 120.13849639892578 0 L 120.13849639892578 6.528409957885742 L 120.01065826416016 6.528409957885742 C 119.54190754890442 5.5823869705200195 118.57883977890015 4.193181991577148 116.26918029785156 4.193181991577148 C 113.24361205101013 4.193181991577148 110.86576843261719 6.562499523162842 110.86576843261719 10.926136016845703 C 110.86576843261719 15.238636493682861 113.17543125152588 17.684659957885742 116.26065826416016 17.684659957885742 Z M 117.12145233154297 15.153409957885742 C 115.08452033996582 15.153409957885742 114.01065826416016 13.363637447357178 114.01065826416016 10.90909194946289 C 114.01065826416016 8.47159194946289 115.06747460365295 6.724431991577148 117.12145233154297 6.724431991577148 C 119.10724759101868 6.724431991577148 120.19815826416016 8.369318962097168 120.19815826416016 10.90909194946289 C 120.19815826416016 13.448864459991455 119.09020233154297 15.153409957885742 117.12145233154297 15.153409957885742 Z" fill="rgb(21.44921824336052,37.240627482533455,54.18750151991844)"/>
        </svg>