<svg 
          width="69.5422592163086" 
          height="13.365768432617188" fill="none" 
          xmlns="http://www.w3.org/2000/svg">
          <path d="M 3.8352270126342773 13.142045974731445 C 7.7727274894714355 13.142045974731445 10.016335725784302 10.681109428405762 10.022727966308594 6.564631938934326 C 10.022727966308594 2.4928994178771973 7.81108021736145 0.05113697052001953 4.065340995788574 0.05113697052001953 L 0 0.05113697052001953 L 0 13.142045974731445 L 3.8352270126342773 13.142045974731445 Z M 1.1953125 12.068181991577148 L 1.1953125 1.125 L 3.995028495788574 1.125 C 7.171875476837158 1.125 8.859376192092896 3.176847457885742 8.865768432617188 6.564631938934326 C 8.865768432617188 9.984376192092896 7.139914512634277 12.068181991577148 3.7649145126342773 12.068181991577148 L 1.1953125 12.068181991577148 ZM 12.696199417114258 13.142045974731445 L 13.840375900268555 13.142045974731445 L 13.840375900268555 3.323864459991455 L 12.696199417114258 3.323864459991455 L 12.696199417114258 13.142045974731445 Z M 13.277875900268555 1.636364459991455 C 13.744495391845703 1.636364459991455 14.134410858154297 1.2656253576278687 14.134410858154297 0.8181824684143066 C 14.134410858154297 0.37073957920074463 13.744495391845703 0 13.277875900268555 0 C 12.811256557703018 0 12.427734375 0.37073957920074463 12.427734375 0.8181824684143066 C 12.427734375 1.2656253576278687 12.811256557703018 1.636364459991455 13.277875900268555 1.636364459991455 ZM 23.44602394104004 5.4779839515686035 C 22.96662038564682 4.0589494705200195 21.918324828147888 3.189631938934326 20.122159957885742 3.189631938934326 C 18.140625476837158 3.189631938934326 16.702415466308594 4.321023464202881 16.702415466308594 5.938210964202881 C 16.702415466308594 7.254972815513611 17.501421213150024 8.149857997894287 19.208097457885742 8.558948516845703 L 20.8125 8.942472457885742 C 21.89275598526001 9.198154300451279 22.410512924194336 9.75426173210144 22.410512924194336 10.540483474731445 C 22.410512924194336 11.563210725784302 21.432528138160706 12.323863983154297 19.92400550842285 12.323863983154297 C 18.58167576789856 12.323863983154297 17.74431946873665 11.716620802879333 17.46946144104004 10.553268432617188 L 16.376420974731445 10.821733474731445 C 16.721591502428055 12.458097100257874 18.01917600631714 13.34659194946289 19.94318199157715 13.34659194946289 C 22.10369324684143 13.34659194946289 23.58664894104004 12.157671213150024 23.58664894104004 10.489347457885742 C 23.58664894104004 9.178977847099304 22.76207399368286 8.303268253803253 21.11931800842285 7.900569438934326 L 19.636363983154297 7.5362229347229 C 18.415483355522156 7.229404509067535 17.84659194946289 6.737216234207153 17.84659194946289 5.887073993682861 C 17.84659194946289 4.88991504907608 18.799006462097168 4.193182468414307 20.122159957885742 4.193182468414307 C 21.445312976837158 4.193182468414307 22.097301065921783 4.889915585517883 22.40411949157715 5.772017955780029 L 23.44602394104004 5.4779839515686035 ZM 28.82013511657715 13.365768432617188 C 30.456498861312866 13.365768432617188 31.45365995168686 12.458097696304321 31.862751007080078 11.58877944946289 L 31.933063507080078 11.58877944946289 L 31.933063507080078 13.142045974731445 L 33.07084655761719 13.142045974731445 L 33.07084655761719 6.475142955780029 C 33.07084655761719 3.8416197299957275 31.089312076568604 3.189631938934326 29.587181091308594 3.189631938934326 C 28.085050463676453 3.189631938934326 26.538174390792847 3.7840914726257324 25.873401641845703 5.388494968414307 L 26.953659057617188 5.778409481048584 C 27.311613529920578 4.934659481048584 28.200106620788574 4.2123589515686035 29.619140625 4.2123589515686035 C 31.108487606048584 4.2123589515686035 31.933063507080078 5.030540227890015 31.933063507080078 6.372869968414307 L 31.933063507080078 6.6029839515686035 C 31.933063507080078 7.3444607853889465 31.012606263160706 7.357245683670044 29.36345863342285 7.561790943145752 C 27.145418643951416 7.836649239063263 25.592151641845703 8.456676363945007 25.592151641845703 10.399858474731445 C 25.592151641845703 12.291903972625732 27.03675413131714 13.365768432617188 28.82013511657715 13.365768432617188 Z M 28.97354507446289 12.323863983154297 C 27.688743829727173 12.323863983154297 26.729936599731445 11.639914870262146 26.729936599731445 10.450994491577148 C 26.729936599731445 9.262073993682861 27.701526761054993 8.763494312763214 29.36345863342285 8.558948516845703 C 30.168856263160706 8.463068127632141 31.60067719221115 8.284092009067535 31.933063507080078 7.9580979347229 L 31.933063507080078 9.377132415771484 C 31.933063507080078 10.987927913665771 30.788886070251465 12.323863983154297 28.97354507446289 12.323863983154297 ZM 36.333984375 13.142045974731445 L 37.4398078918457 13.142045974731445 L 37.4398078918457 11.3203125 L 37.5804328918457 11.3203125 C 37.97673973441124 12.22159093618393 38.80770790576935 13.34659194946289 40.59748077392578 13.34659194946289 C 43.0072820186615 13.34659194946289 44.63725280761719 11.30752944946289 44.63725280761719 8.258523941040039 C 44.63725280761719 5.235085964202881 43.00088930130005 3.189631938934326 40.578304290771484 3.189631938934326 C 38.78213942050934 3.189631938934326 37.97034749388695 4.3146315813064575 37.5804328918457 5.1967339515686035 L 37.4781608581543 5.1967339515686035 L 37.4781608581543 0.05113697052001953 L 36.333984375 0.05113697052001953 L 36.333984375 13.142045974731445 Z M 37.458984375 8.239347457885742 C 37.458984375 5.88707423210144 38.53924202919006 4.225142955780029 40.45685577392578 4.225142955780029 C 42.42560577392578 4.225142955780029 43.49307632446289 5.976562976837158 43.49307632446289 8.239347457885742 C 43.49307632446289 10.52769947052002 42.412821769714355 12.3046875 40.45685577392578 12.3046875 C 38.55202603340149 12.3046875 37.458984375 10.610796213150024 37.458984375 8.239347457885742 ZM 48.27432632446289 0.05113697052001953 L 47.13654327392578 0.05113697052001953 L 47.13654327392578 13.142045974731445 L 48.27432632446289 13.142045974731445 L 48.27432632446289 0.05113697052001953 ZM 55.25444030761719 13.34659194946289 C 57.22319030761719 13.34659194946289 58.546342968940735 12.279120683670044 58.9937858581543 11.045455932617188 L 57.91353225708008 10.693893432617188 C 57.53640133142471 11.575995802879333 56.64790630340576 12.3046875 55.25444030761719 12.3046875 C 53.24733781814575 12.3046875 51.97531934082508 10.840909719467163 51.9241828918457 8.571733474731445 L 59.2366828918457 8.571733474731445 L 59.2366828918457 8.009233474731445 C 59.2366828918457 4.730113983154297 57.2104070186615 3.189631938934326 55.08185577392578 3.189631938934326 C 52.537821531295776 3.189631938934326 50.780006408691406 5.3181822299957275 50.780006408691406 8.290483474731445 C 50.780006408691406 11.269176721572876 52.505860567092896 13.34659194946289 55.25444030761719 13.34659194946289 Z M 51.93057632446289 7.568182468414307 C 52.05202513933182 5.740057468414307 53.285690903663635 4.225142955780029 55.08185577392578 4.225142955780029 C 56.83966827392578 4.225142955780029 58.07332992553711 5.67613673210144 58.07332992553711 7.568182468414307 L 51.93057632446289 7.568182468414307 ZM 65.27876281738281 13.34659194946289 C 67.06214320659637 13.34659194946289 67.8931080698967 12.215198874473572 68.29580688476562 11.3203125 L 68.43003845214844 11.3203125 L 68.43003845214844 13.142045974731445 L 69.5422592163086 13.142045974731445 L 69.5422592163086 0.05113697052001953 L 68.39807891845703 0.05113697052001953 L 68.39807891845703 5.1967339515686035 L 68.29580688476562 5.1967339515686035 C 67.90589201450348 4.3146315813064575 67.09410035610199 3.189631938934326 65.29793548583984 3.189631938934326 C 62.87534999847412 3.189631938934326 61.238990783691406 5.235085964202881 61.238990783691406 8.258523941040039 C 61.238990783691406 11.30752944946289 62.868961334228516 13.34659194946289 65.27876281738281 13.34659194946289 Z M 65.41299438476562 12.3046875 C 63.45702862739563 12.3046875 62.3831672668457 10.52769947052002 62.3831672668457 8.239347457885742 C 62.3831672668457 5.976562976837158 63.444244384765625 4.225142955780029 65.41299438476562 4.225142955780029 C 67.33060812950134 4.225142955780029 68.41725158691406 5.88707423210144 68.41725158691406 8.239347457885742 C 68.41725158691406 10.610796213150024 67.31782412528992 12.3046875 65.41299438476562 12.3046875 Z" fill="rgb(0.31875064596533775,4.265000866726041,8.500000443309546)"/>
        </svg>