<svg 
          width="54.26846694946289" 
          height="16.772727966308594" fill="none" 
          xmlns="http://www.w3.org/2000/svg">
          <path d="M 0 13.090909957885742 L 7.721590518951416 13.090909957885742 L 7.721590518951416 12.017045974731445 L 1.1953125 12.017045974731445 L 1.1953125 7.075994968414307 L 7.191051006317139 7.075994968414307 L 7.191051006317139 6.00213098526001 L 1.1953125 6.00213098526001 L 1.1953125 1.0738630294799805 L 7.593750476837158 1.0738630294799805 L 7.593750476837158 0 L 0 0 L 0 13.090909957885742 ZM 11.588777542114258 0 L 10.450994491577148 0 L 10.450994491577148 13.090909957885742 L 11.588777542114258 13.090909957885742 L 11.588777542114258 0 ZM 18.134233474731445 13.295455932617188 C 19.917613863945007 13.295455932617188 20.748580634593964 12.164062857627869 21.15127944946289 11.269176483154297 L 21.285512924194336 11.269176483154297 L 21.285512924194336 13.090909957885742 L 22.397727966308594 13.090909957885742 L 22.397727966308594 0 L 21.253551483154297 0 L 21.253551483154297 5.145596981048584 L 21.15127944946289 5.145596981048584 C 20.761364579200745 4.263494610786438 19.949574828147888 3.1384949684143066 18.153409957885742 3.1384949684143066 C 15.73082447052002 3.1384949684143066 14.094459533691406 5.183948040008545 14.094459533691406 8.207386016845703 C 14.094459533691406 11.256391525268555 15.724431991577148 13.295455932617188 18.134233474731445 13.295455932617188 Z M 18.26846694946289 12.253551483154297 C 16.312501192092896 12.253551483154297 15.238636016845703 10.476563453674316 15.238636016845703 8.188211441040039 C 15.238636016845703 5.925426959991455 16.29971694946289 4.17400598526001 18.26846694946289 4.17400598526001 C 20.18608069419861 4.17400598526001 21.272727966308594 5.835938215255737 21.272727966308594 8.188211441040039 C 21.272727966308594 10.559660196304321 20.173296689987183 12.253551483154297 18.26846694946289 12.253551483154297 ZM 29.607955932617188 13.295455932617188 C 31.576705932617188 13.295455932617188 32.899858593940735 12.227982759475708 33.3473014831543 10.994318008422852 L 32.26704788208008 10.642755508422852 C 31.889916956424713 11.524857878684998 31.00142192840576 12.253551483154297 29.607955932617188 12.253551483154297 C 27.600853443145752 12.253551483154297 26.32883496582508 10.78977370262146 26.277698516845703 8.520597457885742 L 33.5901985168457 8.520597457885742 L 33.5901985168457 7.958096981048584 C 33.5901985168457 4.6789774894714355 31.563920736312866 3.1384949684143066 29.43536949157715 3.1384949684143066 C 26.891335248947144 3.1384949684143066 25.13352394104004 5.267046213150024 25.13352394104004 8.239347457885742 C 25.13352394104004 11.218040704727173 26.859376192092896 13.295455932617188 29.607955932617188 13.295455932617188 Z M 26.28409194946289 7.517045497894287 C 26.405540764331818 5.688920497894287 27.639204621315002 4.17400598526001 29.43536949157715 4.17400598526001 C 31.19318199157715 4.17400598526001 32.42684555053711 5.624999761581421 32.42684555053711 7.517045497894287 L 26.28409194946289 7.517045497894287 ZM 36.09748077392578 13.090909957885742 L 37.23526382446289 13.090909957885742 L 37.23526382446289 6.749999523162842 C 37.23526382446289 5.29261326789856 38.3538715839386 4.237926006317139 39.887962341308594 4.237926006317139 C 40.18838852643967 4.237926006317139 40.46963822841644 4.2890625 40.5719108581543 4.301846981048584 L 40.5719108581543 3.1448864936828613 C 40.418501913547516 3.1384942531585693 40.15642750263214 3.1257100105285645 39.9710578918457 3.1257100105285645 C 38.737393260002136 3.1257100105285645 37.68270668387413 3.79048228263855 37.286399841308594 4.781249523162842 L 37.203304290771484 4.781249523162842 L 37.203304290771484 3.2727274894714355 L 36.09748077392578 3.2727274894714355 L 36.09748077392578 13.090909957885742 ZM 43.65127944946289 0 L 42.51349639892578 0 L 42.51349639892578 13.090909957885742 L 43.65127944946289 13.090909957885742 L 43.65127944946289 0 ZM 47.45454406738281 16.772727966308594 C 48.681816935539246 16.772727966308594 49.58309853076935 16.069602489471436 50.10724639892578 14.644176483154297 L 54.26846694946289 3.291903018951416 L 53.02840805053711 3.2727274894714355 L 50.1136360168457 11.58877944946289 L 50.024147033691406 11.58877944946289 L 47.109375 3.2727274894714355 L 45.875709533691406 3.2727274894714355 L 49.48721694946289 13.186790466308594 L 49.1292610168457 14.183950424194336 C 48.585937201976776 15.666904926300049 47.818894147872925 15.928978860378265 46.66193389892578 15.564632415771484 L 46.3551139831543 16.56818199157715 C 46.58522766828537 16.676846593618393 47.00710090994835 16.772727966308594 47.45454406738281 16.772727966308594 Z" fill="rgb(0.31875064596533775,4.265000866726041,8.500000443309546)"/>
        </svg>