<svg 
          width="88.94371032714844" 
          height="13.314632415771484" fill="none" 
          xmlns="http://www.w3.org/2000/svg">
          <path d="M 0 13.090909957885742 L 1.1953125 13.090909957885742 L 1.1953125 7.075994968414307 L 8.622869491577148 7.075994968414307 L 8.622869491577148 13.090909957885742 L 9.818181991577148 13.090909957885742 L 9.818181991577148 0 L 8.622869491577148 0 L 8.622869491577148 6.00213098526001 L 1.1953125 6.00213098526001 L 1.1953125 0 L 0 0 L 0 13.090909957885742 ZM 17.022018432617188 13.295455932617188 C 18.990768432617188 13.295455932617188 20.313921093940735 12.227982759475708 20.761363983154297 10.994318008422852 L 19.681108474731445 10.642755508422852 C 19.30397754907608 11.524857878684998 18.41548442840576 12.253551483154297 17.022018432617188 12.253551483154297 C 15.014915943145752 12.253551483154297 13.74289746582508 10.78977370262146 13.691761016845703 8.520597457885742 L 21.004261016845703 8.520597457885742 L 21.004261016845703 7.958096981048584 C 21.004261016845703 4.6789774894714355 18.977983236312866 3.1384949684143066 16.84943199157715 3.1384949684143066 C 14.305397748947144 3.1384949684143066 12.547584533691406 5.267046213150024 12.547584533691406 8.239347457885742 C 12.547584533691406 11.218040704727173 14.273438692092896 13.295455932617188 17.022018432617188 13.295455932617188 Z M 13.698152542114258 7.517045497894287 C 13.819601356983185 5.688920497894287 15.053267121315002 4.17400598526001 16.84943199157715 4.17400598526001 C 18.60724449157715 4.17400598526001 19.840909957885742 5.624999761581421 19.840909957885742 7.517045497894287 L 13.698152542114258 7.517045497894287 ZM 26.25372886657715 13.314632415771484 C 27.890092611312866 13.314632415771484 28.887251794338226 12.406961679458618 29.296342849731445 11.537643432617188 L 29.366655349731445 11.537643432617188 L 29.366655349731445 13.090909957885742 L 30.504440307617188 13.090909957885742 L 30.504440307617188 6.42400598526001 C 30.504440307617188 3.790482759475708 28.522905826568604 3.1384949684143066 27.020774841308594 3.1384949684143066 C 25.518644213676453 3.1384949684143066 23.971768140792847 3.732954502105713 23.306995391845703 5.337357997894287 L 24.387252807617188 5.7272725105285645 C 24.745207279920578 4.8835225105285645 25.633700370788574 4.161221981048584 27.052734375 4.161221981048584 C 28.542081356048584 4.161221981048584 29.366655349731445 4.979403257369995 29.366655349731445 6.321732997894287 L 29.366655349731445 6.551846981048584 C 29.366655349731445 7.293323814868927 28.446200013160706 7.306108713150024 26.79705238342285 7.510653972625732 C 24.579012393951416 7.785512268543243 23.025745391845703 8.405540347099304 23.025745391845703 10.348722457885742 C 23.025745391845703 12.24076795578003 24.47034788131714 13.314632415771484 26.25372886657715 13.314632415771484 Z M 26.40713882446289 12.272727966308594 C 25.122337579727173 12.272727966308594 24.163530349731445 11.588778853416443 24.163530349731445 10.399858474731445 C 24.163530349731445 9.210937976837158 25.135120511054993 8.712358295917511 26.79705238342285 8.5078125 C 27.602450013160706 8.411932110786438 29.03426903486252 8.232955038547516 29.366655349731445 7.906960964202881 L 29.366655349731445 9.325994491577148 C 29.366655349731445 10.936789989471436 28.222479820251465 12.272727966308594 26.40713882446289 12.272727966308594 ZM 34.66885757446289 0 L 33.53107452392578 0 L 33.53107452392578 13.090909957885742 L 34.66885757446289 13.090909957885742 L 34.66885757446289 0 ZM 41.54669952392578 3.2727274894714355 L 39.46928405761719 3.2727274894714355 L 39.46928405761719 0.9204545021057129 L 38.32510757446289 0.9204545021057129 L 38.32510757446289 3.2727274894714355 L 36.861328125 3.2727274894714355 L 36.861328125 4.263494968414307 L 38.32510757446289 4.263494968414307 L 38.32510757446289 10.796165466308594 C 38.32510757446289 12.400568842887878 39.590731382369995 13.237926483154297 40.8499641418457 13.237926483154297 C 41.32297599315643 13.237926483154297 41.642579317092896 13.148438543081284 41.85990905761719 13.06534194946289 L 41.61701202392578 12.036222457885742 C 41.45721083879471 12.080966733396053 41.25266236066818 12.125711441040039 40.95223617553711 12.125711441040039 C 40.17879843711853 12.125711441040039 39.46928405761719 11.76136338710785 39.46928405761719 10.527698516845703 L 39.46928405761719 4.263494968414307 L 41.54669952392578 4.263494968414307 L 41.54669952392578 3.2727274894714355 ZM 45.47940444946289 6.954545497894287 C 45.47940444946289 5.241477012634277 46.62997233867645 4.1867899894714355 48.202415466308594 4.1867899894714355 C 49.72372257709503 4.1867899894714355 50.6953125 5.183948993682861 50.6953125 6.801136493682861 L 50.6953125 13.090909957885742 L 51.8394889831543 13.090909957885742 L 51.8394889831543 6.730823993682861 C 51.8394889831543 4.3913352489471436 50.48437738418579 3.1448864936828613 48.49005889892578 3.1448864936828613 C 47.00710415840149 3.1448864936828613 46.04190385341644 3.7968748807907104 45.5816764831543 4.8132100105285645 L 45.47940444946289 4.8132100105285645 L 45.47940444946289 0 L 44.34162139892578 0 L 44.34162139892578 13.090909957885742 L 45.47940444946289 13.090909957885742 L 45.47940444946289 6.954545497894287 ZM 58.67098617553711 13.295455932617188 C 60.71644043922424 13.295455932617188 62.154655158519745 12.004262447357178 62.41672897338867 10.227273941040039 L 61.26615905761719 10.227273941040039 C 61.00408524274826 11.480114698410034 59.974963545799255 12.253551483154297 58.67098617553711 12.253551483154297 C 56.7469801902771 12.253551483154297 55.4749641418457 10.578836441040039 55.4749641418457 8.188211441040039 C 55.4749641418457 5.810370445251465 56.785332679748535 4.17400598526001 58.67098617553711 4.17400598526001 C 60.07084393501282 4.17400598526001 61.01686745882034 5.075284004211426 61.259765625 6.187499523162842 L 62.410335540771484 6.187499523162842 C 62.141869485378265 4.365766763687134 60.62056350708008 3.1384949684143066 58.65181350708008 3.1384949684143066 C 56.08221101760864 3.1384949684143066 54.330787658691406 5.2734375 54.330787658691406 8.2265625 C 54.330787658691406 11.154119491577148 56.031070947647095 13.295455932617188 58.67098617553711 13.295455932617188 ZM 67.59747314453125 13.314632415771484 C 69.23383688926697 13.314632415771484 70.2309998869896 12.406961679458618 70.64009094238281 11.537643432617188 L 70.71040344238281 11.537643432617188 L 70.71040344238281 13.090909957885742 L 71.84818267822266 13.090909957885742 L 71.84818267822266 6.42400598526001 C 71.84818267822266 3.790482759475708 69.86664819717407 3.1384949684143066 68.36451721191406 3.1384949684143066 C 66.86238658428192 3.1384949684143066 65.31551432609558 3.732954502105713 64.65074157714844 5.337357997894287 L 65.73099517822266 5.7272725105285645 C 66.08894965052605 4.8835225105285645 66.97745037078857 4.161221981048584 68.396484375 4.161221981048584 C 69.88583135604858 4.161221981048584 70.71040344238281 4.979403257369995 70.71040344238281 6.321732997894287 L 70.71040344238281 6.551846981048584 C 70.71040344238281 7.293323814868927 69.78994810581207 7.306108713150024 68.14080047607422 7.510653972625732 C 65.92276048660278 7.785512268543243 64.36949157714844 8.405540347099304 64.36949157714844 10.348722457885742 C 64.36949157714844 12.24076795578003 65.81409215927124 13.314632415771484 67.59747314453125 13.314632415771484 Z M 67.75088500976562 12.272727966308594 C 66.46608376502991 12.272727966308594 65.50727844238281 11.588778853416443 65.50727844238281 10.399858474731445 C 65.50727844238281 9.210937976837158 66.47886860370636 8.712358295917511 68.14080047607422 8.5078125 C 68.94619810581207 8.411932110786438 70.37801712751389 8.232955038547516 70.71040344238281 7.906960964202881 L 70.71040344238281 9.325994491577148 C 70.71040344238281 10.936789989471436 69.5662260055542 12.272727966308594 67.75088500976562 12.272727966308594 ZM 74.87481689453125 13.090909957885742 L 76.01260375976562 13.090909957885742 L 76.01260375976562 6.749999523162842 C 76.01260375976562 5.29261326789856 77.13120770454407 4.237926006317139 78.66529846191406 4.237926006317139 C 78.96572464704514 4.237926006317139 79.24697816371918 4.2890625 79.34925079345703 4.301846981048584 L 79.34925079345703 3.1448864936828613 C 79.19584184885025 3.1384942531585693 78.93376743793488 3.1257100105285645 78.74839782714844 3.1257100105285645 C 77.51473319530487 3.1257100105285645 76.4600428044796 3.79048228263855 76.06373596191406 4.781249523162842 L 75.98064422607422 4.781249523162842 L 75.98064422607422 3.2727274894714355 L 74.87481689453125 3.2727274894714355 L 74.87481689453125 13.090909957885742 ZM 84.96146392822266 13.295455932617188 C 86.93021392822266 13.295455932617188 88.25337040424347 12.227982759475708 88.70081329345703 10.994318008422852 L 87.62055969238281 10.642755508422852 C 87.24342876672745 11.524857878684998 86.35492992401123 12.253551483154297 84.96146392822266 12.253551483154297 C 82.95436143875122 12.253551483154297 81.68234677612782 10.78977370262146 81.63121032714844 8.520597457885742 L 88.94371032714844 8.520597457885742 L 88.94371032714844 7.958096981048584 C 88.94371032714844 4.6789774894714355 86.91743063926697 3.1384949684143066 84.78887939453125 3.1384949684143066 C 82.24484515190125 3.1384949684143066 80.4870376586914 5.267046213150024 80.4870376586914 8.239347457885742 C 80.4870376586914 11.218040704727173 82.21288418769836 13.295455932617188 84.96146392822266 13.295455932617188 Z M 81.63760375976562 7.517045497894287 C 81.75905257463455 5.688920497894287 82.9927145242691 4.17400598526001 84.78887939453125 4.17400598526001 C 86.54669189453125 4.17400598526001 87.78035736083984 5.624999761581421 87.78035736083984 7.517045497894287 L 81.63760375976562 7.517045497894287 Z" fill="rgb(0.31875064596533775,4.265000866726041,8.500000443309546)"/>
        </svg>